<svg xmlns="http://www.w3.org/2000/svg" viewBox="0 0 200 200">
  <circle cx="100" cy="100" r="80" fill="none" stroke="#fff" stroke-width="1" opacity="0.3"/>
  <circle cx="100" cy="100" r="75" fill="none" stroke="#fff" stroke-width="2.5"/>
  <!-- 8 spokes -->
  <line x1="122" y1="100" x2="175" y2="100" stroke="#fff" stroke-width="1.5" opacity="0.5"/>
  <line x1="115.6" y1="84.4" x2="153" y2="47" stroke="#fff" stroke-width="1.5" opacity="0.5"/>
  <line x1="100" y1="78" x2="100" y2="25" stroke="#fff" stroke-width="1.5" opacity="0.5"/>
  <line x1="84.4" y1="84.4" x2="47" y2="47" stroke="#fff" stroke-width="1.5" opacity="0.5"/>
  <line x1="78" y1="100" x2="25" y2="100" stroke="#fff" stroke-width="1.5" opacity="0.5"/>
  <line x1="84.4" y1="115.6" x2="47" y2="153" stroke="#fff" stroke-width="1.5" opacity="0.5"/>
  <line x1="100" y1="122" x2="100" y2="175" stroke="#fff" stroke-width="1.5" opacity="0.5"/>
  <line x1="115.6" y1="115.6" x2="153" y2="153" stroke="#fff" stroke-width="1.5" opacity="0.5"/>
  <!-- 8 nodes -->
  <circle cx="175" cy="100" r="6" fill="none" stroke="#fff" stroke-width="1.5"/>
  <circle cx="153" cy="47" r="6" fill="none" stroke="#fff" stroke-width="1.5"/>
  <circle cx="100" cy="25" r="6" fill="none" stroke="#fff" stroke-width="1.5"/>
  <circle cx="47" cy="47" r="6" fill="none" stroke="#fff" stroke-width="1.5"/>
  <circle cx="25" cy="100" r="6" fill="none" stroke="#fff" stroke-width="1.5"/>
  <circle cx="47" cy="153" r="6" fill="none" stroke="#fff" stroke-width="1.5"/>
  <circle cx="100" cy="175" r="6" fill="none" stroke="#fff" stroke-width="1.5"/>
  <circle cx="153" cy="153" r="6" fill="none" stroke="#fff" stroke-width="1.5"/>
  <!-- Hub -->
  <circle cx="100" cy="100" r="22" fill="none" stroke="#fff" stroke-width="2"/>
  <circle cx="100" cy="100" r="3" fill="#fff"/>
</svg>
